<svg id="Layer_1" data-name="Layer 1" xmlns="http://www.w3.org/2000/svg" viewBox="0 0 61 196.24"><defs><style>.cls-1{fill:#f8cc00;}.cls-1,.cls-2{stroke:#bf8600;stroke-miterlimit:10;}.cls-2{fill:none;stroke-width:0.5px;}</style></defs><path class="cls-1" d="M180,82.76A30,30,0,1,0,143.12,112v10.27a20.24,20.24,0,0,0-13.37,19v33.5a20.24,20.24,0,0,0,12,18.46,8.47,8.47,0,0,0-.46,2.77v43a8.75,8.75,0,0,0,17.5,0V196a8.47,8.47,0,0,0-.46-2.77,20.24,20.24,0,0,0,12-18.46v-33.5a20.24,20.24,0,0,0-13.37-19V112A30,30,0,0,0,180,82.76Z" transform="translate(-119.5 -52.01)"/><rect class="cls-1" x="140.32" y="121.56" width="16.01" height="31.27" rx="8.01" transform="translate(-41.45 -104.24) rotate(26.88)"/><rect class="cls-1" x="128.86" y="128.36" width="16.01" height="31.27" rx="8.01" transform="translate(161.36 -44.87) rotate(90)"/><path class="cls-2" d="M120.75,74.26s.74-8.21,1.36-10.32c4.32-14.58,20.94-15.74,26.41-2.21.92,2.26,2,12.53,2,12.53Z" transform="translate(-119.5 -52.01)"/><path class="cls-2" d="M121.5,74.26s.73-8.21,1.36-10.32c4.31-14.58,20.93-15.74,26.41-2.21.91,2.26,2,12.53,2,12.53Z" transform="translate(-119.5 -52.01)"/><path class="cls-2" d="M122.36,74.26s.74-8.21,1.37-10.32c4.31-14.58,20.93-15.74,26.41-2.21.91,2.26,2,12.53,2,12.53Z" transform="translate(-119.5 -52.01)"/><path class="cls-2" d="M123.23,74.26s.74-8.21,1.36-10.32c4.32-14.58,20.94-15.74,26.42-2.21.91,2.26,2,12.53,2,12.53Z" transform="translate(-119.5 -52.01)"/><path class="cls-2" d="M124.1,74.26s.74-8.21,1.36-10.32c4.32-14.58,20.94-15.74,26.42-2.21.91,2.26,2,12.53,2,12.53Z" transform="translate(-119.5 -52.01)"/><path class="cls-2" d="M125.22,74.26s.74-8.21,1.36-10.32C130.9,49.36,147.52,48.2,153,61.73c.91,2.26,2,12.53,2,12.53Z" transform="translate(-119.5 -52.01)"/><path class="cls-2" d="M126.34,74.26s.74-8.21,1.36-10.32c4.31-14.58,20.94-15.74,26.41-2.21.92,2.26,2,12.53,2,12.53Z" transform="translate(-119.5 -52.01)"/><path class="cls-2" d="M127.46,74.26s.73-8.21,1.36-10.32c4.31-14.58,20.93-15.74,26.41-2.21.92,2.26,2,12.53,2,12.53Z" transform="translate(-119.5 -52.01)"/><path class="cls-2" d="M128.2,74.26s.74-8.21,1.36-10.32C133.88,49.36,150.5,48.2,156,61.73c.91,2.26,2,12.53,2,12.53Z" transform="translate(-119.5 -52.01)"/><path class="cls-2" d="M129.32,74.26s.74-8.21,1.36-10.32c4.32-14.58,20.94-15.74,26.41-2.21.92,2.26,2,12.53,2,12.53Z" transform="translate(-119.5 -52.01)"/><path class="cls-2" d="M130.31,74.26s.74-8.21,1.36-10.32c4.32-14.58,20.94-15.74,26.42-2.21.91,2.26,2,12.53,2,12.53Z" transform="translate(-119.5 -52.01)"/><path class="cls-2" d="M131.18,74.26s.74-8.21,1.36-10.32c4.32-14.58,20.94-15.74,26.42-2.21.91,2.26,2,12.53,2,12.53Z" transform="translate(-119.5 -52.01)"/><path class="cls-2" d="M131.93,74.26s.74-8.21,1.36-10.32c4.31-14.58,20.93-15.74,26.41-2.21.92,2.26,2,12.53,2,12.53Z" transform="translate(-119.5 -52.01)"/><path class="cls-2" d="M132.67,74.26s.74-8.21,1.36-10.32c4.32-14.58,20.94-15.74,26.42-2.21.91,2.26,2,12.53,2,12.53Z" transform="translate(-119.5 -52.01)"/><path class="cls-2" d="M133.79,74.26s.74-8.21,1.36-10.32c4.32-14.58,20.94-15.74,26.42-2.21.91,2.26,2,12.53,2,12.53Z" transform="translate(-119.5 -52.01)"/><path class="cls-2" d="M134.54,74.26s.73-8.21,1.36-10.32c4.31-14.58,20.93-15.74,26.41-2.21.92,2.26,2,12.53,2,12.53Z" transform="translate(-119.5 -52.01)"/><path class="cls-2" d="M135.65,74.26s.74-8.21,1.37-10.32c4.31-14.58,20.93-15.74,26.41-2.21.91,2.26,2,12.53,2,12.53Z" transform="translate(-119.5 -52.01)"/><path class="cls-2" d="M136.4,74.26s.74-8.21,1.36-10.32c4.32-14.58,20.94-15.74,26.41-2.21.92,2.26,2,12.53,2,12.53Z" transform="translate(-119.5 -52.01)"/><path class="cls-2" d="M137.27,74.26s.74-8.21,1.36-10.32c4.31-14.58,20.94-15.74,26.41-2.21.92,2.26,2,12.53,2,12.53Z" transform="translate(-119.5 -52.01)"/><path class="cls-2" d="M138.14,74.26s.74-8.21,1.36-10.32c4.31-14.58,20.93-15.74,26.41-2.21.92,2.26,2,12.53,2,12.53Z" transform="translate(-119.5 -52.01)"/><path class="cls-2" d="M139,74.26s.73-8.21,1.36-10.32c4.31-14.58,20.93-15.74,26.41-2.21.92,2.26,2,12.53,2,12.53Z" transform="translate(-119.5 -52.01)"/><path class="cls-2" d="M140.13,74.26s.73-8.21,1.36-10.32c4.31-14.58,20.93-15.74,26.41-2.21.91,2.26,2,12.53,2,12.53Z" transform="translate(-119.5 -52.01)"/><path class="cls-2" d="M141.24,74.26s.74-8.21,1.36-10.32c4.32-14.58,20.94-15.74,26.42-2.21.91,2.26,2,12.53,2,12.53Z" transform="translate(-119.5 -52.01)"/><path class="cls-2" d="M142,74.26s.74-8.21,1.36-10.32c4.31-14.58,20.93-15.74,26.41-2.21.92,2.26,2,12.53,2,12.53Z" transform="translate(-119.5 -52.01)"/><path class="cls-2" d="M143.11,74.26s.73-8.21,1.36-10.32c4.31-14.58,20.93-15.74,26.41-2.21.92,2.26,2,12.53,2,12.53Z" transform="translate(-119.5 -52.01)"/><path class="cls-2" d="M144.22,74.26s.74-8.21,1.37-10.32C149.9,49.36,166.52,48.2,172,61.73c.91,2.26,2,12.53,2,12.53Z" transform="translate(-119.5 -52.01)"/><path class="cls-2" d="M145.22,74.26s.73-8.21,1.36-10.32c4.31-14.58,20.93-15.74,26.41-2.21.92,2.26,2,12.53,2,12.53Z" transform="translate(-119.5 -52.01)"/><path class="cls-2" d="M146.09,74.26s.73-8.21,1.36-10.32c4.31-14.58,20.93-15.74,26.41-2.21.92,2.26,2,12.53,2,12.53Z" transform="translate(-119.5 -52.01)"/><path class="cls-2" d="M146.83,74.26s.74-8.21,1.36-10.32c4.32-14.58,20.94-15.74,26.42-2.21.91,2.26,2,12.53,2,12.53Z" transform="translate(-119.5 -52.01)"/><path class="cls-2" d="M147.58,74.26s.73-8.21,1.36-10.32c4.31-14.58,20.93-15.74,26.41-2.21.92,2.26,2,12.53,2,12.53Z" transform="translate(-119.5 -52.01)"/><path class="cls-2" d="M148.7,74.26s.73-8.21,1.36-10.32c4.31-14.58,20.93-15.74,26.41-2.21.91,2.26,2,12.53,2,12.53Z" transform="translate(-119.5 -52.01)"/><path class="cls-2" d="M149.44,74.26s.74-8.21,1.36-10.32c4.32-14.58,20.94-15.74,26.42-2.21.91,2.26,2,12.53,2,12.53Z" transform="translate(-119.5 -52.01)"/><path class="cls-2" d="M149.44,74.26s.74-8.21,1.36-10.32c4.32-14.58,20.94-15.74,26.42-2.21.91,2.26,2,12.53,2,12.53Z" transform="translate(-119.5 -52.01)"/></svg>