<svg id="Layer_1" data-name="Layer 1" xmlns="http://www.w3.org/2000/svg" viewBox="0 0 162.5 74.57">
	<defs>
		<style>
			.cls-1 {
				fill: #FDB515;
			}

			.cls-1,
			.cls-2 {
				stroke: #C4820E;
				stroke-miterlimit: 10;
			}

			.cls-2 {
				fill: none;
				stroke-width: 0.5px;
			}
		</style>
	</defs>
	<rect class="cls-1" x="127.87" y="136.75" width="13.75" height="13.75"
		transform="translate(-52.06 188.63) rotate(-100.04)" />
	<path class="cls-1"
		d="M222.12,163.06h-9.24v-30a8.75,8.75,0,0,0-1.06-4.17,20.23,20.23,0,0,0-23.24-15.4l-33,5.84a20.25,20.25,0,0,0,7.06,39.88l32.73-5.79v15.45a8.74,8.74,0,0,0,8.24,11.65h18.5a8.75,8.75,0,1,0,0-17.5Z"
		transform="translate(-68.87 -112.72)" />
	<circle class="cls-1" cx="33.01" cy="36.73" r="30" />
	<path class="cls-1"
		d="M175.6,164.37h0a8,8,0,0,0-1-3.58L159.5,133.7a8,8,0,0,0-10.89-3.1h0a8,8,0,0,0-3.1,10.9l11.79,21.13-12.82,9.78a8,8,0,0,0,9.71,12.73l18.28-13.94a8,8,0,0,0,3.14-6.39C175.61,164.67,175.61,164.52,175.6,164.37Z"
		transform="translate(-68.87 -112.72)" />
	<path class="cls-2" d="M98.61,179.73s-8.21.7-10.39.46c-15.12-1.71-19.15-17.87-6.78-25.63,2.06-1.29,12-4.18,12-4.18Z"
		transform="translate(-68.87 -112.72)" />
	<path class="cls-2" d="M98.48,179s-8.21.7-10.39.45c-15.12-1.7-19.15-17.87-6.78-25.62,2.06-1.29,12-4.19,12-4.19Z"
		transform="translate(-68.87 -112.72)" />
	<path class="cls-2" d="M98.33,178.14s-8.21.7-10.39.46c-15.12-1.71-19.15-17.87-6.79-25.63,2.07-1.29,12-4.18,12-4.18Z"
		transform="translate(-68.87 -112.72)" />
	<path class="cls-2" d="M98.18,177.28s-8.21.71-10.4.46C72.67,176,68.64,159.87,81,152.12c2.07-1.3,12-4.19,12-4.19Z"
		transform="translate(-68.87 -112.72)" />
	<path class="cls-2" d="M98,176.43s-8.21.7-10.4.46c-15.11-1.71-19.15-17.88-6.78-25.63,2.06-1.29,12-4.19,12-4.19Z"
		transform="translate(-68.87 -112.72)" />
	<path class="cls-2" d="M97.83,175.33s-8.21.7-10.39.45c-15.12-1.7-19.15-17.87-6.78-25.62,2.06-1.29,12-4.19,12-4.19Z"
		transform="translate(-68.87 -112.72)" />
	<path class="cls-2" d="M97.64,174.23s-8.21.7-10.4.45c-15.11-1.7-19.15-17.87-6.78-25.62,2.06-1.29,12-4.19,12-4.19Z"
		transform="translate(-68.87 -112.72)" />
	<path class="cls-2" d="M97.44,173.12s-8.21.71-10.39.46c-15.12-1.7-19.15-17.87-6.78-25.62,2.06-1.29,12-4.19,12-4.19Z"
		transform="translate(-68.87 -112.72)" />
	<path class="cls-2" d="M97.31,172.39s-8.21.71-10.39.46C71.8,171.14,67.77,155,80.14,147.23c2.06-1.3,12-4.19,12-4.19Z"
		transform="translate(-68.87 -112.72)" />
	<path class="cls-2" d="M97.12,171.29s-8.21.71-10.4.46c-15.11-1.71-19.14-17.87-6.78-25.62,2.06-1.3,12-4.19,12-4.19Z"
		transform="translate(-68.87 -112.72)" />
	<path class="cls-2" d="M96.94,170.31s-8.2.71-10.39.46c-15.11-1.71-19.15-17.87-6.78-25.62,2.06-1.3,12-4.19,12-4.19Z"
		transform="translate(-68.87 -112.72)" />
	<path class="cls-2" d="M96.79,169.46s-8.21.7-10.39.45c-15.12-1.7-19.15-17.87-6.78-25.62,2.06-1.29,12-4.19,12-4.19Z"
		transform="translate(-68.87 -112.72)" />
	<path class="cls-2" d="M96.66,168.72s-8.21.71-10.39.46c-15.12-1.71-19.15-17.87-6.78-25.62,2.06-1.3,12-4.19,12-4.19Z"
		transform="translate(-68.87 -112.72)" />
	<path class="cls-2" d="M96.53,168s-8.21.7-10.39.46C71,166.74,67,150.58,79.36,142.82c2.06-1.29,12-4.18,12-4.18Z"
		transform="translate(-68.87 -112.72)" />
	<path class="cls-2" d="M96.34,166.89s-8.21.7-10.4.46c-15.11-1.71-19.14-17.87-6.78-25.63,2.07-1.29,12-4.19,12-4.19Z"
		transform="translate(-68.87 -112.72)" />
	<path class="cls-2" d="M96.21,166.15s-8.21.71-10.4.46C70.7,164.91,66.67,148.74,79,141c2.07-1.3,12-4.19,12-4.19Z"
		transform="translate(-68.87 -112.72)" />
	<path class="cls-2" d="M96,165.05s-8.21.71-10.39.46c-15.11-1.7-19.15-17.87-6.78-25.62,2.06-1.3,12-4.19,12-4.19Z"
		transform="translate(-68.87 -112.72)" />
	<path class="cls-2" d="M95.88,164.32s-8.21.7-10.39.46c-15.11-1.71-19.15-17.87-6.78-25.63,2.06-1.29,12-4.18,12-4.18Z"
		transform="translate(-68.87 -112.72)" />
	<path class="cls-2" d="M95.73,163.46s-8.21.71-10.39.46c-15.12-1.7-19.15-17.87-6.78-25.62,2.06-1.3,12-4.19,12-4.19Z"
		transform="translate(-68.87 -112.72)" />
	<path class="cls-2" d="M95.58,162.61s-8.21.7-10.39.46C70.07,161.36,66,145.19,78.4,137.44c2.07-1.29,12-4.19,12-4.19Z"
		transform="translate(-68.87 -112.72)" />
	<path class="cls-2" d="M95.43,161.75s-8.21.71-10.4.46c-15.11-1.71-19.14-17.87-6.78-25.62,2.07-1.3,12-4.19,12-4.19Z"
		transform="translate(-68.87 -112.72)" />
	<path class="cls-2" d="M95.23,160.65s-8.2.71-10.39.46c-15.11-1.71-19.15-17.87-6.78-25.63,2.06-1.29,12-4.18,12-4.18Z"
		transform="translate(-68.87 -112.72)" />
	<path class="cls-2" d="M95,159.55s-8.21.7-10.4.46c-15.11-1.71-19.14-17.87-6.78-25.63,2.07-1.29,12-4.18,12-4.18Z"
		transform="translate(-68.87 -112.72)" />
	<path class="cls-2" d="M94.91,158.82s-8.21.7-10.4.45c-15.11-1.7-19.14-17.87-6.78-25.62,2.07-1.29,12-4.19,12-4.19Z"
		transform="translate(-68.87 -112.72)" />
	<path class="cls-2" d="M94.71,157.71s-8.2.71-10.39.46c-15.11-1.7-19.15-17.87-6.78-25.62,2.06-1.29,12-4.19,12-4.19Z"
		transform="translate(-68.87 -112.72)" />
	<path class="cls-2" d="M94.52,156.61s-8.21.71-10.4.46C69,155.37,65,139.2,77.34,131.45c2.07-1.29,12-4.19,12-4.19Z"
		transform="translate(-68.87 -112.72)" />
	<path class="cls-2" d="M94.35,155.64s-8.21.7-10.4.45c-15.11-1.7-19.15-17.87-6.78-25.62,2.06-1.29,12-4.19,12-4.19Z"
		transform="translate(-68.87 -112.72)" />
	<path class="cls-2" d="M94.19,154.78s-8.2.7-10.39.46c-15.11-1.71-19.15-17.87-6.78-25.63,2.06-1.29,12-4.18,12-4.18Z"
		transform="translate(-68.87 -112.72)" />
	<path class="cls-2" d="M94.06,154.05s-8.2.7-10.39.45c-15.11-1.7-19.15-17.87-6.78-25.62,2.06-1.29,12-4.19,12-4.19Z"
		transform="translate(-68.87 -112.72)" />
	<path class="cls-2" d="M93.93,153.31s-8.2.71-10.39.46c-15.11-1.71-19.15-17.87-6.78-25.62,2.06-1.3,12-4.19,12-4.19Z"
		transform="translate(-68.87 -112.72)" />
	<path class="cls-2" d="M93.74,152.21s-8.21.71-10.39.46C68.23,151,64.2,134.8,76.56,127.05c2.07-1.3,12-4.19,12-4.19Z"
		transform="translate(-68.87 -112.72)" />
	<path class="cls-2" d="M93.61,151.48s-8.21.7-10.39.46c-15.12-1.71-19.15-17.87-6.79-25.63,2.07-1.29,12-4.19,12-4.19Z"
		transform="translate(-68.87 -112.72)" />
	<path class="cls-2" d="M93.61,151.48s-8.21.7-10.39.46c-15.12-1.71-19.15-17.87-6.79-25.63,2.07-1.29,12-4.19,12-4.19Z"
		transform="translate(-68.87 -112.72)" />
</svg>