<svg id="Layer_1" data-name="Layer 1" xmlns="http://www.w3.org/2000/svg" viewBox="0 0 89.1 160.63"><defs><style>.cls-1{fill:#f8cc00;}.cls-1,.cls-2{stroke:#bf8600;stroke-miterlimit:10;}.cls-2{fill:none;stroke-width:0.5px;}</style></defs><path class="cls-1" d="M185.3,212.44h-19a2.82,2.82,0,0,0,.29-.18,20.24,20.24,0,0,0,17.72-20.07v-33.5a20.24,20.24,0,0,0-13.38-19v-9.9a30,30,0,1,0-13.75,0v9.9a20.24,20.24,0,0,0-13.37,19v33.5a20.29,20.29,0,0,0,1.34,7.21l-32.24,6.78a8.76,8.76,0,0,0-6.76,10.37h0a8.73,8.73,0,0,0,6,6.57,8.74,8.74,0,0,0,8.53,6.82H185.3a8.75,8.75,0,0,0,0-17.5Z" transform="translate(-105.45 -69.81)"/><rect class="cls-1" x="154.12" y="150.17" width="16.01" height="52.03" rx="8.01" transform="translate(210.89 289.52) rotate(-177.48)"/><rect class="cls-1" x="133.06" y="170.62" width="16.01" height="53" rx="8.01" transform="translate(217.8 -32.58) rotate(84.32)"/><path class="cls-2" d="M134.8,92.06s.73-8.21,1.36-10.32c4.31-14.58,20.93-15.73,26.41-2.21.92,2.26,2,12.53,2,12.53Z" transform="translate(-105.45 -69.81)"/><path class="cls-2" d="M135.54,92.06s.74-8.21,1.36-10.32c4.32-14.58,20.94-15.73,26.42-2.21.91,2.26,2,12.53,2,12.53Z" transform="translate(-105.45 -69.81)"/><path class="cls-2" d="M136.41,92.06s.74-8.21,1.36-10.32c4.32-14.58,20.94-15.73,26.42-2.21.91,2.26,2,12.53,2,12.53Z" transform="translate(-105.45 -69.81)"/><path class="cls-2" d="M137.28,92.06s.74-8.21,1.36-10.32C143,67.16,159.58,66,165.06,79.53c.91,2.26,2,12.53,2,12.53Z" transform="translate(-105.45 -69.81)"/><path class="cls-2" d="M138.15,92.06s.74-8.21,1.36-10.32c4.32-14.58,20.94-15.73,26.42-2.21.91,2.26,2,12.53,2,12.53Z" transform="translate(-105.45 -69.81)"/><path class="cls-2" d="M139.27,92.06s.74-8.21,1.36-10.32C144.94,67.16,161.57,66,167,79.53c.92,2.26,2,12.53,2,12.53Z" transform="translate(-105.45 -69.81)"/><path class="cls-2" d="M140.39,92.06s.73-8.21,1.36-10.32c4.31-14.58,20.93-15.73,26.41-2.21.92,2.26,2,12.53,2,12.53Z" transform="translate(-105.45 -69.81)"/><path class="cls-2" d="M141.5,92.06s.74-8.21,1.37-10.32c4.31-14.58,20.93-15.73,26.41-2.21.91,2.26,2,12.53,2,12.53Z" transform="translate(-105.45 -69.81)"/><path class="cls-2" d="M142.25,92.06s.74-8.21,1.36-10.32C147.93,67.16,164.55,66,170,79.53c.92,2.26,2,12.53,2,12.53Z" transform="translate(-105.45 -69.81)"/><path class="cls-2" d="M143.37,92.06s.73-8.21,1.36-10.32C149,67.16,165.66,66,171.14,79.53c.92,2.26,2,12.53,2,12.53Z" transform="translate(-105.45 -69.81)"/><path class="cls-2" d="M144.36,92.06s.74-8.21,1.36-10.32C150,67.16,166.66,66,172.14,79.53c.91,2.26,2,12.53,2,12.53Z" transform="translate(-105.45 -69.81)"/><path class="cls-2" d="M145.23,92.06s.74-8.21,1.36-10.32C150.91,67.16,167.53,66,173,79.53c.91,2.26,2,12.53,2,12.53Z" transform="translate(-105.45 -69.81)"/><path class="cls-2" d="M146,92.06s.73-8.21,1.36-10.32c4.31-14.58,20.93-15.73,26.41-2.21.91,2.26,2,12.53,2,12.53Z" transform="translate(-105.45 -69.81)"/><path class="cls-2" d="M146.72,92.06s.74-8.21,1.36-10.32C152.4,67.16,169,66,174.5,79.53c.91,2.26,2,12.53,2,12.53Z" transform="translate(-105.45 -69.81)"/><path class="cls-2" d="M147.84,92.06s.74-8.21,1.36-10.32c4.32-14.58,20.94-15.73,26.41-2.21.92,2.26,2,12.53,2,12.53Z" transform="translate(-105.45 -69.81)"/><path class="cls-2" d="M148.58,92.06s.74-8.21,1.37-10.32c4.31-14.58,20.93-15.73,26.41-2.21.91,2.26,2,12.53,2,12.53Z" transform="translate(-105.45 -69.81)"/><path class="cls-2" d="M149.7,92.06s.74-8.21,1.36-10.32C155.38,67.16,172,66,177.48,79.53c.91,2.26,2,12.53,2,12.53Z" transform="translate(-105.45 -69.81)"/><path class="cls-2" d="M150.45,92.06s.73-8.21,1.36-10.32c4.31-14.58,20.93-15.73,26.41-2.21.92,2.26,2,12.53,2,12.53Z" transform="translate(-105.45 -69.81)"/><path class="cls-2" d="M151.32,92.06s.73-8.21,1.36-10.32C157,67.16,173.61,66,179.09,79.53c.92,2.26,2,12.53,2,12.53Z" transform="translate(-105.45 -69.81)"/><path class="cls-2" d="M152.19,92.06s.73-8.21,1.36-10.32C157.86,67.16,174.48,66,180,79.53c.91,2.26,2,12.53,2,12.53Z" transform="translate(-105.45 -69.81)"/><path class="cls-2" d="M153.06,92.06s.73-8.21,1.36-10.32c4.31-14.58,20.93-15.73,26.41-2.21.91,2.26,2,12.53,2,12.53Z" transform="translate(-105.45 -69.81)"/><path class="cls-2" d="M154.17,92.06s.74-8.21,1.36-10.32C159.85,67.16,176.47,66,182,79.53c.91,2.26,2,12.53,2,12.53Z" transform="translate(-105.45 -69.81)"/><path class="cls-2" d="M155.29,92.06s.74-8.21,1.36-10.32C161,67.16,177.59,66,183.07,79.53c.91,2.26,2,12.53,2,12.53Z" transform="translate(-105.45 -69.81)"/><path class="cls-2" d="M156,92.06s.73-8.21,1.36-10.32c4.31-14.58,20.93-15.73,26.41-2.21.92,2.26,2,12.53,2,12.53Z" transform="translate(-105.45 -69.81)"/><path class="cls-2" d="M157.15,92.06s.74-8.21,1.37-10.32c4.31-14.58,20.93-15.73,26.41-2.21.91,2.26,2,12.53,2,12.53Z" transform="translate(-105.45 -69.81)"/><path class="cls-2" d="M158.27,92.06s.74-8.21,1.36-10.32C164,67.16,180.57,66,186.05,79.53c.91,2.26,2,12.53,2,12.53Z" transform="translate(-105.45 -69.81)"/><path class="cls-2" d="M159.27,92.06s.73-8.21,1.36-10.32C164.94,67.16,181.56,66,187,79.53c.91,2.26,2,12.53,2,12.53Z" transform="translate(-105.45 -69.81)"/><path class="cls-2" d="M160.14,92.06s.73-8.21,1.36-10.32c4.31-14.58,20.93-15.73,26.41-2.21.91,2.26,2,12.53,2,12.53Z" transform="translate(-105.45 -69.81)"/><path class="cls-2" d="M160.88,92.06s.74-8.21,1.36-10.32c4.32-14.58,20.94-15.73,26.41-2.21.92,2.26,2,12.53,2,12.53Z" transform="translate(-105.45 -69.81)"/><path class="cls-2" d="M161.63,92.06s.73-8.21,1.36-10.32C167.3,67.16,183.92,66,189.4,79.53c.91,2.26,2,12.53,2,12.53Z" transform="translate(-105.45 -69.81)"/><path class="cls-2" d="M162.74,92.06s.74-8.21,1.36-10.32C168.42,67.16,185,66,190.52,79.53c.91,2.26,2,12.53,2,12.53Z" transform="translate(-105.45 -69.81)"/><path class="cls-2" d="M163.49,92.06s.74-8.21,1.36-10.32c4.31-14.58,20.93-15.73,26.41-2.21.92,2.26,2,12.53,2,12.53Z" transform="translate(-105.45 -69.81)"/><path class="cls-2" d="M163.49,92.06s.74-8.21,1.36-10.32c4.31-14.58,20.93-15.73,26.41-2.21.92,2.26,2,12.53,2,12.53Z" transform="translate(-105.45 -69.81)"/></svg>